<?xml version="1.0" standalone="no"?>
<!DOCTYPE svg PUBLIC "-//W3C//DTD SVG 20010904//EN"
 "http://www.w3.org/TR/2001/REC-SVG-20010904/DTD/svg10.dtd">
<svg version="1.0" xmlns="http://www.w3.org/2000/svg"
 width="96.000000pt" height="96.000000pt" viewBox="0 0 96.000000 96.000000"
 preserveAspectRatio="xMidYMid meet">
<metadata>
Created by potrace 1.14, written by Peter Selinger 2001-2017
</metadata>
<g transform="translate(0.000000,96.000000) scale(0.100000,-0.100000)"
fill="#000000" stroke="none">
<path d="M0 480 l1 -480 480 0 479 0 0 480 0 480 -480 0 -481 0 1 -480z m348
336 c91 -48 137 -167 96 -249 -40 -80 -97 -117 -179 -117 -62 0 -97 14 -136
57 -65 69 -76 144 -33 222 36 68 92 101 166 101 33 0 71 -6 86 -14z m479 -497
c25 -151 24 -158 -22 -159 -11 0 -71 -11 -133 -24 -78 -16 -115 -20 -117 -12
-6 21 -44 231 -47 261 l-3 29 145 26 c80 15 147 25 149 24 2 -2 14 -67 28
-145z m-681 60 c10 -17 -13 -36 -27 -22 -12 12 -4 33 11 33 5 0 12 -5 16 -11z
m-56 -104 c9 -11 10 -19 2 -27 -14 -14 -32 -1 -32 23 0 23 13 25 30 4z m-40
-165 c0 -5 -7 -10 -15 -10 -8 0 -15 5 -15 10 0 6 7 10 15 10 8 0 15 -4 15 -10z"/>
<path d="M720 434 c-35 -6 -140 -24 -171 -30 l-26 -5 18 -107 c28 -166 23
-155 72 -147 59 9 211 38 215 40 2 2 -7 59 -19 129 -25 137 -19 130 -89 120z"/>
</g>
</svg>
